<svg width="843" height="843" viewBox="0 0 843 843" fill="none" xmlns="http://www.w3.org/2000/svg">
<path d="M684.873 842.92H158.048C70.7526 842.92 0 772.167 0 684.873V158.048C0 70.7526 70.7526 0 158.048 0H684.873C772.167 0 842.92 70.7526 842.92 158.048V684.873C842.92 772.167 772.167 842.92 684.873 842.92Z" fill="#2D72BC" fill-opacity="0.05"/>
<path d="M227.359 164.258C228.472 164.251 228.472 164.251 229.608 164.244C232.097 164.232 234.586 164.233 237.074 164.235C238.858 164.229 240.642 164.222 242.426 164.215C247.273 164.197 252.12 164.192 256.968 164.191C261.013 164.189 265.059 164.182 269.105 164.175C278.65 164.159 288.195 164.154 297.739 164.155C307.587 164.156 317.434 164.135 327.282 164.104C335.735 164.077 344.189 164.067 352.643 164.068C357.692 164.068 362.741 164.063 367.791 164.042C372.54 164.022 377.289 164.022 382.038 164.037C383.78 164.039 385.522 164.034 387.265 164.022C389.645 164.006 392.024 164.016 394.404 164.031C395.092 164.021 395.78 164.011 396.489 164C401.425 164.071 404.19 165.474 408.008 168.526C412.142 173.218 413.133 175.595 413.185 181.808C413.192 182.452 413.199 183.096 413.205 183.76C413.225 185.895 413.237 188.031 413.247 190.166C413.251 190.896 413.255 191.626 413.259 192.378C413.28 196.243 413.294 200.108 413.304 203.972C413.315 207.958 413.349 211.944 413.389 215.929C413.415 218.999 413.423 222.068 413.427 225.138C413.432 226.607 413.443 228.076 413.462 229.544C413.486 231.605 413.485 233.665 413.478 235.726C413.484 236.897 413.49 238.068 413.496 239.274C412.745 244.28 410.244 247.355 406.633 250.776C400.71 254.724 395.108 254.801 388.235 254.721C387.311 254.718 386.388 254.715 385.436 254.712C382.502 254.701 379.568 254.676 376.633 254.651C374.637 254.641 372.641 254.631 370.645 254.623C365.766 254.601 360.887 254.567 356.008 254.526C356.008 259.476 356.008 264.426 356.008 269.526C383.398 269.526 410.788 269.526 439.008 269.526C439.008 262.266 439.008 255.006 439.008 247.526C442.008 242.526 442.008 242.526 445.008 240.526C450.99 239.543 454.623 242.34 459.383 245.526C460.12 246.003 460.856 246.48 461.614 246.971C463.42 248.144 465.215 249.333 467.008 250.526C468.696 249.61 470.384 248.693 472.071 247.776C473.078 247.233 474.084 246.69 475.122 246.131C477.409 244.859 479.57 243.515 481.758 242.088C485.852 240.12 487.618 240.512 492.008 241.526C495.435 243.471 498.589 245.663 501.825 247.908C504.859 249.753 504.859 249.753 508.005 249.522C512.807 247.929 516.627 245.06 520.79 242.24C524.439 240.296 525.952 239.799 530.008 240.526C532.965 241.956 535.657 243.701 538.383 245.526C539.12 246.003 539.856 246.48 540.614 246.971C542.42 248.144 544.215 249.333 546.008 250.526C547.696 249.61 549.384 248.693 551.071 247.776C552.078 247.233 553.084 246.69 554.122 246.131C556.409 244.859 558.57 243.515 560.758 242.088C564.802 240.144 566.756 240.162 571.008 241.526C573.72 243.788 574.889 245.563 575.326 249.09C575.402 252.182 575.357 255.247 575.258 258.338C575.24 259.413 575.222 260.487 575.204 261.594C575.157 264.239 575.091 266.882 575.008 269.526C575.592 269.517 576.176 269.508 576.777 269.499C582.877 269.41 588.976 269.35 595.077 269.306C597.35 269.286 599.624 269.259 601.897 269.224C605.174 269.175 608.45 269.153 611.727 269.135C613.24 269.104 613.24 269.104 614.784 269.072C621.73 269.07 627.209 270.176 632.53 274.867C637.837 280.636 638.246 286.821 638.01 294.249C637.968 295.244 637.926 296.24 637.883 297.266C637.812 299.5 637.742 301.734 637.673 303.969C637.614 305.758 637.614 305.758 637.553 307.583C635.938 360.283 636.2 412.386 645.301 464.448C645.454 465.319 645.606 466.191 645.763 467.09C648.923 485.096 652.386 503.037 656.103 520.937C657.751 528.879 659.353 536.829 660.919 544.787C661.071 545.557 661.223 546.328 661.38 547.121C666.5 573.212 668.264 598.721 668.13 625.295C668.127 626.14 668.124 626.985 668.121 627.855C668.098 633.433 668.013 639.007 667.889 644.583C667.872 645.652 667.872 645.652 667.855 646.742C667.69 655.836 667.232 662.706 661.044 669.768C660.393 670.307 659.742 670.845 659.071 671.401C658.423 671.955 657.774 672.509 657.106 673.08C652.324 676.375 647.948 676.815 642.263 676.783C641.486 676.786 640.71 676.79 639.909 676.794C637.297 676.803 634.686 676.798 632.074 676.793C630.186 676.797 628.298 676.801 626.41 676.807C621.215 676.819 616.02 676.819 610.825 676.816C605.225 676.816 599.625 676.827 594.025 676.837C583.051 676.853 572.076 676.859 561.102 676.86C552.183 676.861 543.265 676.865 534.346 676.871C513.186 676.886 492.025 676.898 470.865 676.897C469.85 676.897 469.85 676.897 468.814 676.897C465.384 676.897 461.953 676.897 458.523 676.896C457.841 676.896 457.16 676.896 456.458 676.896C455.08 676.896 453.703 676.896 452.325 676.896C430.889 676.895 409.452 676.91 388.016 676.937C363.936 676.968 339.855 676.985 315.775 676.983C303.024 676.983 290.272 676.988 277.521 677.01C266.665 677.028 255.809 677.032 244.953 677.019C239.413 677.012 233.873 677.012 228.333 677.029C223.262 677.045 218.191 677.042 213.12 677.025C211.285 677.022 209.45 677.025 207.614 677.037C205.12 677.051 202.626 677.04 200.132 677.023C199.419 677.033 198.707 677.043 197.973 677.054C191.591 676.963 186.515 674.722 181.766 670.561C181.227 669.91 180.689 669.259 180.133 668.588C179.579 667.94 179.025 667.291 178.454 666.623C171.276 656.206 173.408 638.475 173.133 626.213C173.112 625.321 173.091 624.428 173.07 623.509C172.48 594.97 175.669 567.704 181.215 539.803C181.367 539.041 181.518 538.279 181.673 537.493C184.21 524.722 186.827 511.968 189.446 499.214C202.797 434.144 206.57 371.571 204.231 305.247C204.178 303.537 204.178 303.537 204.124 301.792C204.058 299.702 203.979 297.612 203.883 295.523C203.658 288.065 204.697 281.262 209.258 275.151C215.472 269.22 221.566 269.102 229.755 269.233C230.766 269.237 231.777 269.241 232.819 269.246C236.028 269.262 239.237 269.3 242.446 269.338C244.63 269.353 246.814 269.367 248.999 269.379C254.336 269.412 259.672 269.464 265.008 269.526C265.008 264.576 265.008 259.626 265.008 254.526C263.778 254.541 262.548 254.557 261.28 254.573C256.688 254.628 252.096 254.662 247.504 254.69C245.521 254.705 243.539 254.726 241.556 254.752C238.697 254.789 235.837 254.805 232.977 254.819C232.1 254.834 231.222 254.85 230.318 254.866C224.285 254.867 218.272 254.327 213.481 250.215C208.984 245.204 207.763 239.926 207.734 233.356C207.719 231.559 207.719 231.559 207.705 229.725C207.706 228.444 207.707 227.162 207.708 225.842C207.704 224.5 207.699 223.157 207.695 221.815C207.687 219.009 207.687 216.202 207.693 213.396C207.699 209.813 207.682 206.232 207.658 202.65C207.644 199.88 207.643 197.11 207.646 194.339C207.645 192.381 207.631 190.423 207.617 188.465C207.659 180.397 208.016 174.978 213.446 168.713C218.023 164.806 221.425 164.232 227.359 164.258ZM225.008 181.526C224.91 183.239 224.88 184.956 224.879 186.672C224.876 187.77 224.873 188.868 224.869 189.999C224.872 191.194 224.874 192.388 224.876 193.619C224.875 194.836 224.874 196.053 224.873 197.307C224.872 199.886 224.874 202.466 224.878 205.045C224.883 209.008 224.878 212.972 224.872 216.936C224.872 219.435 224.874 221.933 224.876 224.432C224.874 225.627 224.872 226.821 224.869 228.052C224.873 229.15 224.876 230.248 224.879 231.379C224.88 232.351 224.881 233.323 224.881 234.324C224.762 236.501 224.762 236.501 226.008 237.526C228.198 237.623 230.391 237.648 232.583 237.646C233.278 237.647 233.973 237.648 234.689 237.648C237.035 237.65 239.381 237.645 241.727 237.639C243.402 237.639 245.077 237.639 246.752 237.64C251.314 237.64 255.876 237.634 260.438 237.627C265.2 237.621 269.962 237.62 274.724 237.619C283.748 237.616 292.772 237.608 301.796 237.598C312.066 237.587 322.337 237.581 332.608 237.576C353.741 237.566 374.875 237.547 396.008 237.526C396.008 218.716 396.008 199.906 396.008 180.526C373.86 180.503 351.712 180.485 329.565 180.474C319.282 180.469 308.999 180.462 298.716 180.45C289.757 180.44 280.797 180.434 271.838 180.432C267.091 180.43 262.344 180.427 257.597 180.42C253.135 180.413 248.672 180.411 244.21 180.413C242.567 180.412 240.924 180.41 239.281 180.406C237.048 180.402 234.816 180.403 232.583 180.405C231.33 180.404 230.077 180.404 228.786 180.403C226.101 180.208 226.101 180.208 225.008 181.526ZM282.008 254.526C282.008 259.476 282.008 264.426 282.008 269.526C300.818 269.526 319.628 269.526 339.008 269.526C339.008 264.576 339.008 259.626 339.008 254.526C320.198 254.526 301.388 254.526 282.008 254.526ZM477.542 265.326C472.947 268.476 469.71 269.275 464.008 268.526C461.368 267.206 458.728 265.886 456.008 264.526C456.008 295.876 456.008 327.226 456.008 359.526C489.668 359.526 523.328 359.526 558.008 359.526C558.008 328.176 558.008 296.826 558.008 264.526C555.698 265.846 553.388 267.166 551.008 268.526C544.237 269.448 540.791 267.731 535.321 263.901C532.902 262.208 530.665 260.876 528.008 259.526C525.324 259.882 525.324 259.882 523.008 261.526C522.074 262.095 521.139 262.665 520.176 263.252C518.193 264.516 516.213 265.787 514.239 267.065C510.37 268.814 507.148 269.344 503.008 268.526C500.339 267.322 498.055 265.75 495.696 264.026C487.739 258.394 485.044 259.842 477.542 265.326ZM221.008 288.526C221.008 328.456 221.008 368.386 221.008 409.526C353.008 409.526 485.008 409.526 621.008 409.526C621.008 369.596 621.008 329.666 621.008 288.526C619.249 286.358 619.249 286.358 617.098 286.285C616.32 286.29 615.543 286.294 614.742 286.299C613.849 286.299 612.956 286.299 612.036 286.299C611.096 286.31 610.156 286.32 609.188 286.33C608.325 286.332 607.462 286.334 606.573 286.336C603.343 286.347 600.113 286.375 596.883 286.401C586.055 286.463 586.055 286.463 575.008 286.526C575.008 310.616 575.008 334.706 575.008 359.526C580.948 360.516 580.948 360.516 587.008 361.526C588.278 368.069 588.278 368.069 588.008 370.526C585.505 373.613 583.977 375.323 580.031 376.149C578.919 376.149 577.808 376.148 576.664 376.147C575.384 376.158 574.104 376.17 572.785 376.181C571.374 376.168 569.962 376.155 568.551 376.141C567.059 376.144 565.568 376.15 564.076 376.158C560.03 376.172 555.985 376.155 551.94 376.131C547.706 376.111 543.472 376.117 539.237 376.12C532.128 376.119 525.019 376.1 517.91 376.068C509.689 376.031 501.47 376.022 493.249 376.029C485.341 376.035 477.433 376.024 469.525 376.005C466.159 375.997 462.794 375.994 459.428 375.996C455.466 375.997 451.504 375.982 447.542 375.956C446.088 375.949 444.634 375.947 443.179 375.951C441.195 375.954 439.211 375.938 437.226 375.92C436.116 375.916 435.005 375.913 433.861 375.909C430.656 375.478 429.289 374.786 427.008 372.526C425.903 369.137 425.811 367.195 426.821 363.776C429.008 361.526 429.008 361.526 439.008 359.526C439.008 335.436 439.008 311.346 439.008 286.526C410.88 286.481 382.752 286.444 354.623 286.422C341.564 286.412 328.504 286.398 315.444 286.375C304.066 286.355 292.687 286.342 281.308 286.337C275.279 286.335 269.251 286.329 263.222 286.314C257.554 286.301 251.886 286.296 246.217 286.299C244.132 286.299 242.046 286.295 239.96 286.287C237.123 286.277 234.286 286.28 231.449 286.285C230.197 286.276 230.197 286.276 228.92 286.267C224.494 286.107 224.494 286.107 221.008 288.526ZM220.008 426.526C216.077 446.086 216.077 446.086 212.329 465.68C212.104 466.886 211.879 468.093 211.647 469.337C210.926 473.21 210.207 477.085 209.489 480.959C209.237 482.316 208.986 483.674 208.734 485.031C207.688 490.672 206.643 496.313 205.601 501.955C204.125 509.946 202.643 517.937 201.152 525.926C200.093 531.607 199.04 537.289 197.993 542.972C197.371 546.343 196.747 549.714 196.115 553.083C195.415 556.825 194.726 560.568 194.04 564.312C193.833 565.406 193.626 566.5 193.413 567.626C191.67 577.255 190.174 586.076 196.008 594.526C197.094 596.235 197.094 596.235 199.008 597.526C201.526 597.82 203.796 597.928 206.313 597.903C207.067 597.908 207.82 597.912 208.596 597.916C211.141 597.927 213.685 597.917 216.229 597.907C218.064 597.91 219.899 597.915 221.733 597.921C226.79 597.933 231.848 597.927 236.905 597.918C242.353 597.911 247.801 597.921 253.249 597.93C263.928 597.943 274.608 597.94 285.287 597.932C293.965 597.925 302.642 597.924 311.319 597.927C313.169 597.928 313.169 597.928 315.056 597.928C317.561 597.929 320.066 597.93 322.571 597.931C345.413 597.94 368.254 597.931 391.096 597.915C411.954 597.901 432.813 597.902 453.672 597.917C477.094 597.933 500.517 597.939 523.94 597.93C526.437 597.929 528.933 597.928 531.43 597.927C532.658 597.927 533.887 597.926 535.152 597.926C543.821 597.923 552.49 597.927 561.159 597.935C571.721 597.943 582.283 597.941 592.845 597.925C598.237 597.917 603.629 597.914 609.021 597.924C613.953 597.933 618.885 597.928 623.817 597.912C625.605 597.908 627.393 597.91 629.181 597.917C631.605 597.926 634.028 597.917 636.452 597.903C637.152 597.91 637.852 597.917 638.573 597.924C643.27 597.87 646.634 596.9 650.008 593.526C650.499 585.316 648.987 577.475 647.546 569.431C647.281 567.919 647.016 566.407 646.753 564.895C646.038 560.811 645.315 556.729 644.589 552.648C643.83 548.369 643.08 544.089 642.328 539.809C641.067 532.629 639.799 525.449 638.528 518.271C636.735 508.146 634.952 498.02 633.171 487.893C631.936 480.873 630.699 473.853 629.461 466.834C629.162 465.133 628.862 463.433 628.562 461.732C627.708 456.887 626.852 452.043 625.994 447.199C625.735 445.732 625.475 444.265 625.217 442.797C624.864 440.795 624.509 438.794 624.154 436.793C623.956 435.672 623.757 434.552 623.553 433.398C623.116 431.091 622.578 428.803 622.008 426.526C489.348 426.526 356.688 426.526 220.008 426.526ZM192.008 613.526C192.008 627.386 192.008 641.246 192.008 655.526C196.918 660.435 198.582 660.631 205.273 660.662C205.97 660.661 206.666 660.659 207.384 660.657C208.507 660.66 208.507 660.66 209.653 660.663C212.176 660.669 214.699 660.667 217.222 660.666C219.044 660.669 220.866 660.672 222.687 660.675C227.704 660.683 232.721 660.685 237.738 660.686C243.144 660.688 248.551 660.695 253.957 660.702C265.784 660.715 277.61 660.721 289.436 660.726C296.817 660.729 304.199 660.733 311.58 660.737C332.008 660.75 352.435 660.76 372.863 660.763C374.825 660.764 374.825 660.764 376.826 660.764C378.137 660.764 379.448 660.764 380.799 660.765C383.455 660.765 386.112 660.765 388.768 660.766C390.086 660.766 391.404 660.766 392.762 660.767C414.122 660.77 435.482 660.788 456.843 660.811C478.762 660.835 500.681 660.847 522.6 660.849C534.911 660.849 547.223 660.855 559.534 660.873C570.016 660.889 580.497 660.894 590.979 660.886C596.329 660.882 601.678 660.883 607.028 660.897C611.924 660.909 616.819 660.908 621.715 660.896C623.488 660.894 625.26 660.897 627.033 660.906C629.441 660.917 631.848 660.91 634.255 660.898C635.29 660.909 635.29 660.909 636.345 660.921C641.306 660.867 644.675 659.781 649.008 657.526C655.569 644.404 650.008 628.196 650.008 613.526C498.868 613.526 347.728 613.526 192.008 613.526Z" fill="#1AA0E1"/>
<path d="M263.871 308.378C264.848 308.371 265.825 308.364 266.831 308.357C267.897 308.354 268.962 308.351 270.06 308.349C271.751 308.339 271.751 308.339 273.476 308.329C277.21 308.309 280.943 308.297 284.677 308.287C285.953 308.283 287.228 308.279 288.543 308.275C294.601 308.256 300.658 308.242 306.716 308.233C313.691 308.224 320.666 308.197 327.641 308.157C333.696 308.123 339.75 308.111 345.805 308.107C348.374 308.102 350.943 308.091 353.511 308.072C357.111 308.048 360.71 308.049 364.31 308.056C365.893 308.036 365.893 308.036 367.508 308.017C374.009 308.062 379.474 308.918 385.009 312.526C389.242 316.971 391.117 321.334 391.186 327.421C391.205 328.913 391.205 328.913 391.225 330.436C391.232 331.511 391.239 332.586 391.247 333.694C391.255 334.802 391.263 335.911 391.271 337.054C391.285 339.403 391.296 341.753 391.304 344.102C391.321 347.682 391.365 351.261 391.409 354.84C391.419 357.125 391.428 359.409 391.434 361.694C391.452 362.758 391.469 363.823 391.487 364.92C391.469 371.315 390.735 376.211 387.009 381.526C382.568 385.852 378.126 387.769 371.943 387.793C370.947 387.802 369.95 387.81 368.924 387.819C367.841 387.818 366.759 387.817 365.644 387.816C364.496 387.823 363.347 387.83 362.164 387.837C358.366 387.856 354.568 387.859 350.77 387.862C348.129 387.868 345.487 387.875 342.845 387.882C337.306 387.895 331.768 387.898 326.229 387.896C319.84 387.895 313.451 387.916 307.063 387.948C300.903 387.977 294.743 387.984 288.583 387.983C285.968 387.985 283.354 387.994 280.74 388.01C277.08 388.029 273.421 388.024 269.761 388.011C268.685 388.023 267.609 388.034 266.5 388.046C260.164 387.993 255.273 387.224 250.009 383.526C245.87 379.169 243.77 375.445 243.718 369.425C243.705 368.41 243.693 367.395 243.679 366.349C243.677 365.258 243.675 364.166 243.673 363.041C243.666 361.912 243.659 360.782 243.653 359.618C243.642 357.228 243.638 354.837 243.638 352.447C243.634 348.803 243.597 345.161 243.559 341.518C243.554 339.192 243.55 336.867 243.548 334.541C243.533 333.458 243.519 332.374 243.504 331.258C243.548 323.927 244.476 318.174 249.79 312.686C250.641 312.142 250.641 312.142 251.509 311.588C252.076 311.208 252.643 310.828 253.227 310.436C256.705 308.659 260.007 308.398 263.871 308.378ZM261.009 326.526C260.916 327.907 260.891 329.294 260.895 330.678C260.895 331.559 260.895 332.44 260.895 333.347C260.901 334.305 260.906 335.262 260.911 336.248C260.912 337.224 260.914 338.199 260.915 339.203C260.921 342.332 260.933 345.46 260.946 348.588C260.951 350.703 260.956 352.819 260.96 354.934C260.971 360.131 260.988 365.328 261.009 370.526C275.594 370.549 290.18 370.567 304.766 370.577C311.538 370.583 318.31 370.59 325.082 370.601C331.611 370.612 338.14 370.618 344.669 370.621C347.167 370.622 349.664 370.626 352.161 370.631C355.645 370.639 359.13 370.64 362.614 370.639C363.658 370.643 364.701 370.646 365.777 370.65C366.72 370.649 367.664 370.647 368.636 370.646C369.874 370.647 369.874 370.647 371.136 370.649C373.023 370.731 373.023 370.731 374.009 369.526C374.106 368.18 374.137 366.83 374.138 365.481C374.143 364.194 374.143 364.194 374.148 362.882C374.146 361.95 374.144 361.017 374.141 360.057C374.143 358.631 374.143 358.631 374.144 357.176C374.145 355.162 374.143 353.148 374.139 351.134C374.134 348.039 374.139 344.944 374.145 341.85C374.145 339.898 374.143 337.946 374.141 335.994C374.144 334.596 374.144 334.596 374.148 333.169C374.144 332.312 374.141 331.454 374.138 330.571C374.137 329.812 374.136 329.053 374.136 328.272C374.198 326.497 374.198 326.497 373.009 325.526C371.569 325.428 370.124 325.399 368.681 325.399C367.747 325.396 366.813 325.393 365.851 325.39C364.818 325.392 363.786 325.394 362.722 325.396C361.64 325.394 360.559 325.393 359.445 325.391C355.852 325.387 352.258 325.389 348.665 325.393C346.18 325.392 343.695 325.391 341.21 325.39C335.326 325.388 329.441 325.392 323.556 325.397C318.855 325.401 314.154 325.4 309.453 325.395C302.988 325.389 296.522 325.389 290.057 325.392C287.585 325.392 285.113 325.392 282.641 325.389C279.192 325.387 275.744 325.391 272.296 325.396C270.747 325.393 270.747 325.393 269.166 325.39C267.765 325.394 267.765 325.394 266.336 325.399C265.112 325.399 265.112 325.399 263.862 325.4C261.992 325.323 261.992 325.323 261.009 326.526Z" fill="#1AA0E2"/>
<path d="M261.528 448.323C262.264 448.317 263.001 448.311 263.759 448.305C265.317 448.296 266.874 448.289 268.432 448.285C270.802 448.276 273.172 448.245 275.542 448.213C277.058 448.207 278.574 448.201 280.091 448.198C280.794 448.185 281.497 448.173 282.222 448.16C287.686 448.185 291.611 449.541 295.821 453.026C298.745 456.719 298.204 461.236 298.247 465.701C298.255 466.504 298.263 467.307 298.271 468.134C298.285 469.833 298.296 471.532 298.304 473.231C298.321 475.818 298.365 478.405 298.409 480.992C298.419 482.645 298.428 484.298 298.434 485.951C298.452 486.72 298.469 487.489 298.487 488.282C298.467 493.462 297.499 496.461 294.009 500.526C290.417 503.342 285.929 502.885 281.552 502.932C280.73 502.943 279.909 502.955 279.063 502.966C277.327 502.985 275.592 502.998 273.856 503.006C271.215 503.026 268.577 503.088 265.936 503.151C264.246 503.164 262.555 503.174 260.864 503.182C260.082 503.207 259.299 503.231 258.493 503.257C253.073 503.213 250.294 501.777 246.326 498.108C243.333 494.513 243.831 490.209 243.805 485.787C243.8 485.029 243.794 484.271 243.788 483.489C243.779 481.885 243.772 480.28 243.768 478.675C243.759 476.233 243.728 473.791 243.696 471.348C243.69 469.786 243.684 468.224 243.68 466.662C243.668 465.937 243.656 465.212 243.643 464.465C243.664 459.738 244.532 456.547 247.009 452.526C251.458 448.493 255.764 448.357 261.528 448.323ZM261.009 465.526C261.009 472.126 261.009 478.726 261.009 485.526C267.609 485.526 274.209 485.526 281.009 485.526C281.009 478.926 281.009 472.326 281.009 465.526C274.409 465.526 267.809 465.526 261.009 465.526Z" fill="#1AA0E2"/>
<path d="M261.196 523.127C261.976 523.124 262.756 523.121 263.56 523.118C265.204 523.116 266.848 523.122 268.492 523.134C271.001 523.15 273.508 523.135 276.016 523.115C277.618 523.117 279.22 523.121 280.821 523.127C281.567 523.121 282.313 523.115 283.082 523.109C289.075 523.189 292.01 524.634 296.284 528.678C298.568 532.449 298.62 535.795 298.61 540.08C298.619 540.9 298.627 541.72 298.636 542.564C298.648 544.294 298.649 546.024 298.64 547.754C298.634 550.386 298.681 553.014 298.731 555.647C298.736 557.333 298.737 559.019 298.735 560.705C298.754 561.485 298.772 562.264 298.791 563.067C298.701 568.463 297.238 571.253 293.589 575.207C289.956 578.239 285.526 577.72 281.052 577.764C280.271 577.772 279.49 577.78 278.686 577.788C277.035 577.802 275.383 577.813 273.731 577.821C271.216 577.838 268.701 577.882 266.186 577.926C264.579 577.936 262.972 577.945 261.364 577.951C260.244 577.978 260.244 577.978 259.1 578.004C253.899 577.983 250.948 576.904 247.009 573.525C243.641 569.442 243.555 565.472 243.575 560.373C243.57 559.595 243.565 558.818 243.559 558.016C243.553 556.377 243.554 554.737 243.563 553.097C243.571 550.599 243.542 548.103 243.511 545.606C243.509 544.007 243.51 542.409 243.513 540.811C243.501 540.07 243.49 539.329 243.479 538.566C243.547 533.401 244.661 530.442 248.009 526.525C252.104 523.14 256.082 523.085 261.196 523.127ZM261.009 540.525C261.009 547.125 261.009 553.725 261.009 560.525C267.609 560.525 274.209 560.525 281.009 560.525C281.009 553.925 281.009 547.325 281.009 540.525C274.409 540.525 267.809 540.525 261.009 540.525Z" fill="#1AA0E2"/>
<path d="M486.821 448.127C487.553 448.124 488.285 448.121 489.039 448.118C490.579 448.116 492.118 448.122 493.658 448.134C496.002 448.15 498.344 448.134 500.688 448.115C502.191 448.117 503.693 448.121 505.196 448.127C505.89 448.121 506.584 448.115 507.299 448.109C511.942 448.175 515.142 448.936 519.008 451.525C522.99 456.061 523.593 459.967 523.505 465.811C523.506 466.589 523.507 467.368 523.509 468.17C523.507 469.808 523.496 471.446 523.475 473.084C523.446 475.584 523.454 478.082 523.467 480.582C523.461 482.179 523.453 483.776 523.442 485.373C523.445 486.116 523.448 486.859 523.451 487.624C523.343 493.596 521.88 496.538 517.86 500.807C513.956 503.16 510.859 503.085 506.383 503.022C505.559 503.023 504.734 503.024 503.885 503.026C502.147 503.024 500.409 503.013 498.671 502.992C496.017 502.963 493.365 502.971 490.712 502.984C489.019 502.978 487.326 502.97 485.633 502.959C484.844 502.962 484.054 502.965 483.24 502.968C478.66 502.89 475.572 502.487 472.008 499.525C468.597 495.391 468.555 491.307 468.575 486.154C468.57 485.354 468.564 484.554 468.559 483.73C468.553 482.043 468.554 480.357 468.562 478.67C468.571 476.099 468.542 473.531 468.51 470.961C468.509 469.317 468.509 467.673 468.512 466.029C468.501 465.267 468.49 464.504 468.478 463.718C468.545 458.573 469.486 455.516 473.008 451.525C477.5 448.516 481.544 448.081 486.821 448.127ZM486.008 465.525C486.008 472.125 486.008 478.725 486.008 485.525C492.608 485.525 499.208 485.525 506.008 485.525C506.008 478.925 506.008 472.325 506.008 465.525C499.408 465.525 492.808 465.525 486.008 465.525Z" fill="#1AA0E2"/>
<path d="M411.821 448.127C412.553 448.124 413.285 448.121 414.039 448.118C415.579 448.116 417.118 448.122 418.658 448.134C421.002 448.15 423.344 448.134 425.688 448.115C427.191 448.117 428.694 448.121 430.196 448.127C430.89 448.121 431.584 448.115 432.299 448.109C436.943 448.175 440.143 448.936 444.009 451.525C447.98 456.053 448.594 459.943 448.505 465.775C448.506 466.552 448.508 467.328 448.509 468.128C448.508 469.762 448.496 471.396 448.475 473.029C448.446 475.518 448.455 478.005 448.468 480.494C448.461 482.088 448.453 483.682 448.442 485.275C448.445 486.013 448.448 486.751 448.451 487.511C448.365 492.244 447.648 495.575 445.009 499.525C440.887 503.075 436.587 502.964 431.384 502.924C430.147 502.928 430.147 502.928 428.885 502.933C427.147 502.935 425.409 502.929 423.671 502.917C421.017 502.901 418.365 502.916 415.712 502.936C414.019 502.934 412.326 502.93 410.634 502.924C409.449 502.933 409.449 502.933 408.241 502.942C403.661 502.884 400.527 502.556 397.009 499.525C393.928 494.915 393.554 490.679 393.575 485.275C393.57 484.499 393.565 483.723 393.559 482.923C393.553 481.289 393.554 479.655 393.563 478.022C393.571 475.532 393.542 473.046 393.511 470.557C393.509 468.963 393.51 467.369 393.513 465.775C393.501 465.038 393.49 464.3 393.479 463.54C393.547 458.387 394.612 455.397 398.009 451.525C402.5 448.516 406.544 448.081 411.821 448.127ZM411.009 465.525C411.009 472.125 411.009 478.725 411.009 485.525C417.609 485.525 424.209 485.525 431.009 485.525C431.009 478.925 431.009 472.325 431.009 465.525C424.409 465.525 417.809 465.525 411.009 465.525Z" fill="#1AA0E2"/>
<path d="M336.821 448.127C337.553 448.124 338.285 448.121 339.039 448.118C340.579 448.116 342.118 448.122 343.658 448.134C346.002 448.15 348.344 448.134 350.688 448.115C352.191 448.117 353.694 448.121 355.196 448.127C355.89 448.121 356.584 448.115 357.299 448.109C361.943 448.175 365.143 448.936 369.009 451.525C373.185 456.258 373.593 460.012 373.505 466.029C373.506 466.83 373.508 467.631 373.509 468.456C373.507 470.141 373.496 471.827 373.475 473.512C373.446 476.084 373.455 478.654 373.468 481.227C373.461 482.869 373.453 484.512 373.442 486.154C373.445 486.919 373.448 487.684 373.451 488.472C373.372 492.994 372.915 496.002 370.009 499.525C365.846 502.969 361.647 503.007 356.454 503.029C355.634 503.039 354.814 503.049 353.97 503.06C352.24 503.075 350.51 503.082 348.781 503.081C346.148 503.088 343.519 503.142 340.888 503.199C339.201 503.208 337.515 503.214 335.829 503.217C334.66 503.249 334.66 503.249 333.467 503.282C328.065 503.215 325.284 501.761 321.327 498.107C318.296 494.472 318.814 490.044 318.77 485.568C318.762 484.788 318.754 484.007 318.746 483.203C318.732 481.551 318.721 479.9 318.713 478.248C318.702 476.563 318.681 474.879 318.652 473.194C318.609 470.756 318.593 468.319 318.583 465.881C318.565 465.134 318.548 464.387 318.53 463.617C318.551 458.418 319.572 455.426 323.009 451.525C327.5 448.516 331.544 448.081 336.821 448.127ZM336.009 465.525C336.009 472.125 336.009 478.725 336.009 485.525C342.609 485.525 349.209 485.525 356.009 485.525C356.009 478.925 356.009 472.325 356.009 465.525C349.409 465.525 342.809 465.525 336.009 465.525Z" fill="#1A9FE2"/>
<path d="M561.821 448.127C562.553 448.124 563.285 448.121 564.039 448.118C565.579 448.116 567.118 448.122 568.658 448.134C571.002 448.15 573.344 448.134 575.688 448.115C577.191 448.117 578.693 448.121 580.196 448.127C580.89 448.121 581.584 448.115 582.299 448.109C586.921 448.175 590.069 449.124 594.008 451.525C598.103 456.044 598.178 460.451 598.212 466.299C598.217 467.06 598.223 467.82 598.229 468.604C598.238 470.213 598.245 471.822 598.249 473.431C598.258 475.885 598.289 478.338 598.321 480.791C598.327 482.356 598.333 483.921 598.337 485.486C598.349 486.217 598.361 486.947 598.374 487.7C598.348 493.661 596.867 496.551 592.86 500.807C588.956 503.16 585.859 503.085 581.383 503.022C580.559 503.023 579.734 503.024 578.885 503.026C577.147 503.024 575.409 503.013 573.671 502.992C571.017 502.963 568.365 502.971 565.712 502.984C564.019 502.978 562.326 502.97 560.633 502.959C559.844 502.962 559.054 502.965 558.24 502.968C553.66 502.89 550.572 502.487 547.008 499.525C543.597 495.391 543.555 491.307 543.575 486.154C543.57 485.354 543.564 484.554 543.559 483.73C543.553 482.043 543.554 480.357 543.562 478.67C543.571 476.099 543.542 473.531 543.51 470.961C543.509 469.317 543.509 467.673 543.512 466.029C543.501 465.267 543.49 464.504 543.478 463.718C543.545 458.573 544.486 455.516 548.008 451.525C552.5 448.516 556.544 448.081 561.821 448.127ZM561.008 465.525C561.008 472.125 561.008 478.725 561.008 485.525C567.608 485.525 574.208 485.525 581.008 485.525C581.008 478.925 581.008 472.325 581.008 465.525C574.408 465.525 567.808 465.525 561.008 465.525Z" fill="#1AA0E1"/>
<path d="M560.966 523.287C561.746 523.279 562.527 523.271 563.331 523.263C564.983 523.249 566.634 523.238 568.286 523.231C570.802 523.213 573.316 523.169 575.831 523.125C577.438 523.115 579.046 523.107 580.653 523.1C581.4 523.082 582.147 523.065 582.917 523.047C588.118 523.068 591.069 524.147 595.009 527.526C598.377 531.609 598.462 535.579 598.442 540.678C598.447 541.456 598.453 542.234 598.458 543.035C598.464 544.675 598.463 546.314 598.455 547.954C598.446 550.452 598.475 552.948 598.507 555.446C598.508 557.044 598.508 558.642 598.505 560.241C598.522 561.352 598.522 561.352 598.539 562.485C598.47 567.65 597.356 570.609 594.009 574.526C589.913 577.911 585.935 577.966 580.821 577.924C580.041 577.927 579.261 577.93 578.457 577.933C576.813 577.935 575.169 577.929 573.525 577.917C571.017 577.901 568.509 577.917 566.001 577.936C564.399 577.934 562.798 577.93 561.196 577.924C560.45 577.93 559.704 577.936 558.936 577.943C553.448 577.869 550.358 576.54 546.259 573.026C543.26 569.427 543.83 564.956 543.805 560.534C543.8 559.751 543.794 558.968 543.788 558.161C543.779 556.505 543.772 554.849 543.768 553.193C543.759 550.667 543.728 548.142 543.696 545.616C543.69 544.005 543.684 542.394 543.68 540.784C543.668 540.031 543.656 539.279 543.643 538.504C543.666 532.971 544.969 529.906 548.509 525.776C552.093 522.789 556.558 523.331 560.966 523.287ZM561.009 540.526C561.009 547.126 561.009 553.726 561.009 560.526C567.609 560.526 574.209 560.526 581.009 560.526C581.009 553.926 581.009 547.326 581.009 540.526C574.409 540.526 567.809 540.526 561.009 540.526Z" fill="#1AA0E2"/>
<path d="M411.196 523.127C411.976 523.124 412.756 523.121 413.56 523.118C415.204 523.116 416.848 523.122 418.492 523.134C421.001 523.15 423.508 523.135 426.016 523.115C427.618 523.117 429.22 523.121 430.821 523.127C431.567 523.121 432.313 523.115 433.082 523.109C438.569 523.182 441.659 524.511 445.759 528.025C448.758 531.624 448.187 536.096 448.212 540.518C448.217 541.301 448.223 542.084 448.229 542.89C448.238 544.546 448.245 546.202 448.249 547.858C448.259 550.384 448.29 552.91 448.321 555.436C448.328 557.046 448.333 558.657 448.337 560.268C448.349 561.02 448.361 561.772 448.374 562.547C448.355 567.084 447.931 570.005 445.009 573.525C440.433 577.429 436.599 578.121 430.759 578.057C429.982 578.061 429.206 578.064 428.406 578.068C426.772 578.071 425.138 578.064 423.505 578.047C421.015 578.026 418.529 578.047 416.04 578.072C414.446 578.07 412.852 578.065 411.259 578.057C410.521 578.065 409.783 578.073 409.023 578.081C403.877 577.989 400.914 576.857 397.009 573.525C393.641 569.442 393.555 565.472 393.575 560.373C393.57 559.595 393.565 558.818 393.559 558.016C393.553 556.377 393.554 554.737 393.563 553.097C393.571 550.599 393.542 548.103 393.511 545.606C393.509 544.007 393.51 542.409 393.513 540.811C393.501 540.07 393.49 539.329 393.479 538.566C393.547 533.401 394.661 530.442 398.009 526.525C402.104 523.14 406.082 523.085 411.196 523.127ZM411.009 540.525C411.009 547.125 411.009 553.725 411.009 560.525C417.609 560.525 424.209 560.525 431.009 560.525C431.009 553.925 431.009 547.325 431.009 540.525C424.409 540.525 417.809 540.525 411.009 540.525Z" fill="#1AA0E2"/>
<path d="M336.196 523.127C336.976 523.124 337.756 523.121 338.56 523.118C340.204 523.116 341.848 523.122 343.492 523.134C346.001 523.15 348.508 523.135 351.016 523.115C352.618 523.117 354.22 523.121 355.821 523.127C356.567 523.121 357.313 523.115 358.082 523.109C363.569 523.182 366.659 524.511 370.759 528.025C373.758 531.624 373.187 536.096 373.212 540.518C373.217 541.301 373.223 542.084 373.229 542.89C373.238 544.546 373.245 546.202 373.249 547.858C373.259 550.384 373.29 552.91 373.321 555.436C373.328 557.046 373.333 558.657 373.337 560.268C373.349 561.02 373.361 561.772 373.374 562.547C373.351 568.08 372.049 571.146 368.509 575.275C364.925 578.262 360.46 577.721 356.052 577.764C355.271 577.772 354.49 577.78 353.686 577.788C352.035 577.802 350.383 577.813 348.731 577.821C346.216 577.838 343.701 577.882 341.186 577.926C339.579 577.936 337.972 577.945 336.364 577.951C335.244 577.978 335.244 577.978 334.1 578.004C328.899 577.983 325.948 576.904 322.009 573.525C318.641 569.442 318.555 565.472 318.575 560.373C318.57 559.595 318.565 558.818 318.559 558.016C318.553 556.377 318.554 554.737 318.563 553.097C318.571 550.599 318.542 548.103 318.511 545.606C318.509 544.007 318.51 542.409 318.513 540.811C318.501 540.07 318.49 539.329 318.479 538.566C318.547 533.401 319.661 530.442 323.009 526.525C327.104 523.14 331.082 523.085 336.196 523.127ZM336.009 540.525C336.009 547.125 336.009 553.725 336.009 560.525C342.609 560.525 349.209 560.525 356.009 560.525C356.009 553.925 356.009 547.325 356.009 540.525C349.409 540.525 342.809 540.525 336.009 540.525Z" fill="#1AA0E2"/>
<path d="M485.966 523.287C486.746 523.279 487.527 523.271 488.331 523.263C489.983 523.249 491.634 523.238 493.286 523.231C495.802 523.213 498.316 523.169 500.831 523.125C502.438 523.115 504.046 523.107 505.653 523.1C506.4 523.082 507.147 523.065 507.917 523.047C513.118 523.068 516.069 524.147 520.009 527.526C523.377 531.609 523.462 535.579 523.442 540.678C523.447 541.456 523.453 542.234 523.458 543.035C523.465 544.675 523.463 546.314 523.455 547.954C523.446 550.452 523.475 552.948 523.507 555.446C523.508 557.044 523.508 558.642 523.505 560.241C523.522 561.352 523.522 561.352 523.539 562.485C523.47 567.65 522.356 570.609 519.009 574.526C514.925 577.894 510.955 577.979 505.856 577.959C504.69 577.967 504.69 577.967 503.499 577.975C501.86 577.982 500.22 577.98 498.58 577.972C496.082 577.963 493.586 577.992 491.089 578.024C489.49 578.025 487.892 578.025 486.294 578.022C485.183 578.039 485.183 578.039 484.049 578.056C478.884 577.987 475.925 576.873 472.009 573.526C468.623 569.43 468.569 565.452 468.61 560.338C468.607 559.558 468.604 558.778 468.602 557.974C468.599 556.33 468.605 554.686 468.618 553.042C468.634 550.534 468.618 548.027 468.598 545.518C468.6 543.916 468.604 542.315 468.61 540.713C468.604 539.967 468.598 539.221 468.592 538.453C468.665 532.965 469.995 529.875 473.509 525.776C477.093 522.789 481.558 523.331 485.966 523.287ZM486.009 540.526C486.009 547.126 486.009 553.726 486.009 560.526C492.609 560.526 499.209 560.526 506.009 560.526C506.009 553.926 506.009 547.326 506.009 540.526C499.409 540.526 492.809 540.526 486.009 540.526Z" fill="#1A9FE2"/>
<path d="M481.237 287.333C483.164 287.309 483.164 287.309 485.13 287.284C486.535 287.273 487.94 287.262 489.344 287.252C490.053 287.247 490.761 287.242 491.49 287.236C495.237 287.209 498.984 287.19 502.731 287.176C505.829 287.162 508.927 287.134 512.025 287.094C515.77 287.044 519.514 287.02 523.259 287.012C524.684 287.006 526.109 286.99 527.534 286.967C529.53 286.935 531.526 286.938 533.522 286.942C534.656 286.934 535.791 286.926 536.96 286.918C540.961 287.716 542.454 289.423 545.009 292.526C545.982 295.602 545.536 297.202 545.009 300.526C542.376 303.26 540.7 304.41 536.935 305.04C535.216 305.05 535.216 305.05 533.462 305.059C532.157 305.075 530.852 305.091 529.508 305.107C528.091 305.103 526.675 305.098 525.259 305.092C523.798 305.097 522.337 305.104 520.877 305.111C517.82 305.121 514.764 305.117 511.708 305.102C507.797 305.085 503.887 305.108 499.976 305.144C496.961 305.166 493.947 305.164 490.932 305.156C489.491 305.155 488.049 305.162 486.607 305.177C484.59 305.194 482.573 305.176 480.555 305.157C479.409 305.156 478.263 305.155 477.082 305.154C473.041 304.328 471.536 302.721 469.009 299.526C468.474 295.72 468.453 293.531 470.321 290.151C473.537 287.054 476.997 287.381 481.237 287.333Z" fill="#1BA0E2"/>
<path d="M480.555 321.895C481.86 321.882 483.165 321.87 484.51 321.857C485.926 321.869 487.342 321.882 488.759 321.897C490.219 321.896 491.68 321.894 493.14 321.89C496.197 321.887 499.253 321.901 502.309 321.929C506.22 321.963 510.13 321.957 514.041 321.938C517.056 321.928 520.07 321.937 523.085 321.952C524.526 321.957 525.968 321.956 527.41 321.95C529.427 321.945 531.444 321.968 533.462 321.992C534.608 321.999 535.754 322.005 536.935 322.011C540.657 322.634 542.342 323.905 545.009 326.526C546.107 330.226 545.501 333.611 543.696 336.963C540.458 339.961 537.07 339.661 532.872 339.687C531.607 339.697 530.342 339.706 529.039 339.716C527.657 339.721 526.274 339.725 524.891 339.729C523.473 339.735 522.054 339.74 520.635 339.746C517.661 339.757 514.687 339.763 511.713 339.766C507.908 339.771 504.103 339.796 500.297 339.824C497.367 339.843 494.436 339.848 491.506 339.849C490.103 339.852 488.701 339.86 487.298 339.874C485.333 339.891 483.368 339.887 481.404 339.882C479.728 339.888 479.728 339.888 478.019 339.893C474.622 339.479 472.743 338.552 470.009 336.526C468.439 333.387 468.657 330.987 469.009 327.526C472.563 323.001 474.856 321.899 480.555 321.895Z" fill="#1AA0E2"/>
</svg>
